<?xml version="1.0" encoding="UTF-8"?>
<!DOCTYPE svg PUBLIC "-//W3C//DTD SVG 1.1//EN" "http://www.w3.org/Graphics/SVG/1.1/DTD/svg11.dtd">
<!-- Creator: CorelDRAW 2019 (64-Bit) -->
<svg xmlns="http://www.w3.org/2000/svg" xml:space="preserve" width="67.0987mm" height="17.3295mm" version="1.1" style="shape-rendering:geometricPrecision; text-rendering:geometricPrecision; image-rendering:optimizeQuality; fill-rule:evenodd; clip-rule:evenodd"
viewBox="0 0 866.25 223.73"
 xmlns:xlink="http://www.w3.org/1999/xlink">
 <defs>
  <style type="text/css">
   <![CDATA[
    .str0 {stroke:white;stroke-width:9.11;stroke-miterlimit:22.9256}
    .fil1 {fill:none}
    .fil2 {fill:#915C02}
    .fil3 {fill:#FCA817}
    .fil4 {fill:#FFFEFE}
    .fil5 {fill:white}
    .fil0 {fill:white;fill-rule:nonzero}
   ]]>
  </style>
 </defs>
 <g id="Capa_x0020_1">
  <metadata id="CorelCorpID_0Corel-Layer"/>
  <g id="_1965219360176">
   <path class="fil0" d="M19 37.7l0 11.84 27.82 34.79 27.82 -34.79 0 -11.84c0,-3.09 0.87,-5.62 2.64,-7.61 1.77,-2 4.07,-2.98 6.86,-2.98 2.79,0 5.09,0.98 6.86,2.94 1.77,1.92 2.64,4.48 2.64,7.65l0 18.36 -37.32 47.04 0 59.97c0,3.17 -0.87,5.73 -2.64,7.65 -1.77,1.96 -4.07,2.94 -6.86,2.94 -2.79,0 -5.09,-0.98 -6.86,-2.98 -1.77,-2 -2.64,-4.52 -2.64,-7.61l0 -59.97 -37.32 -47.04 0 -18.36c0,-3.24 0.87,-5.8 2.6,-7.73 1.74,-1.92 4.03,-2.86 6.9,-2.86 2.71,0 4.98,0.98 6.78,2.98 1.81,2 2.71,4.52 2.71,7.61z"/>
   <path class="fil0" d="M400.51 37.7l0 108.14 5.39 8.82 7.95 0 4.98 -8.82 0 -60.42c0,-3.17 0.87,-5.69 2.6,-7.54 1.73,-1.88 4.03,-2.83 6.9,-2.83 2.79,0 5.09,0.94 6.86,2.86 1.77,1.92 2.64,4.41 2.64,7.5l0 60.42 4.98 8.82 7.95 0 5.39 -8.82 0 -108.14c0,-3.09 0.87,-5.62 2.64,-7.61 1.77,-2 4.07,-2.98 6.86,-2.98 2.79,0 5.09,0.98 6.86,2.94 1.77,1.92 2.64,4.48 2.64,7.65l0 109.69c0,1.17 -0.11,2.26 -0.38,3.24 -0.26,0.98 -0.57,1.77 -0.94,2.38l-7.09 12.48c-1.55,2.79 -3.17,4.86 -4.9,6.18 -1.73,1.32 -3.62,2 -5.69,2l-18.32 0c-2.72,0 -4.98,-0.94 -6.79,-2.86 -1.81,-1.92 -2.71,-4.37 -2.71,-7.31l0 -0.41 0 0.41c0,2.94 -0.91,5.39 -2.71,7.31 -1.81,1.92 -4.07,2.86 -6.79,2.86l-18.32 0c-2.07,0 -3.92,-0.64 -5.58,-1.92 -1.66,-1.28 -3.24,-3.39 -4.79,-6.26l-7.31 -12.36c-0.45,-0.79 -0.75,-1.66 -0.98,-2.6 -0.23,-0.91 -0.34,-1.96 -0.34,-3.13l0 -109.69c0,-3.24 0.87,-5.8 2.6,-7.73 1.73,-1.92 4.03,-2.86 6.9,-2.86 2.72,0 4.98,0.98 6.79,2.98 1.81,2 2.71,4.52 2.71,7.61zm167.63 32.83l-15.34 52.24 30.46 0 -15.12 -52.24zm10.14 -32.83l35.77 122.96c0.23,0.64 0.42,1.32 0.53,1.96 0.11,0.68 0.15,1.24 0.15,1.77 0,2.56 -0.91,4.75 -2.75,6.56 -1.85,1.81 -4.03,2.71 -6.52,2.71 -2.22,0 -4.18,-0.72 -5.92,-2.15 -1.73,-1.43 -2.9,-3.36 -3.58,-5.69l-7.05 -24.05 -41.43 0 -7.16 23.94c-0.9,2.72 -2.11,4.75 -3.69,6.03 -1.58,1.28 -3.58,1.92 -6.03,1.92 -2.41,0 -4.52,-0.91 -6.33,-2.71 -1.81,-1.81 -2.71,-3.92 -2.71,-6.33 0,-1.09 0.04,-1.92 0.11,-2.49 0.07,-0.57 0.19,-1.09 0.34,-1.58l35.77 -122.85c1.09,-3.96 2.45,-6.71 4.03,-8.25 1.58,-1.55 3.69,-2.34 6.33,-2.34 2.56,0 4.64,0.75 6.18,2.22 1.55,1.47 2.86,4.26 3.96,8.37zm101.85 8.41l0 28.95 45.91 0c2.6,0 4.82,-0.98 6.67,-2.98 1.88,-2 2.83,-4.26 2.83,-6.75l0 -9.73c0,-2.49 -0.94,-4.71 -2.86,-6.63 -1.92,-1.92 -4.11,-2.86 -6.63,-2.86l-45.91 0zm-19 -19l64.91 0c7.8,0 14.55,2.79 20.2,8.41 5.69,5.58 8.52,12.29 8.52,20.09l0 9.73c0,7.88 -2.79,14.62 -8.41,20.28 -5.58,5.62 -12.36,8.44 -20.32,8.44l-10.14 0 36.98 64.5c0.68,1.09 1.13,2.07 1.43,2.98 0.3,0.87 0.45,1.7 0.45,2.41 0,2.64 -0.9,4.9 -2.75,6.75 -1.85,1.85 -4.11,2.75 -6.75,2.75 -1.85,0 -3.54,-0.49 -5.09,-1.43 -1.55,-0.94 -2.79,-2.3 -3.77,-3.96l-42.71 -73.99 -13.57 0 0 69.02c0,3.17 -0.87,5.73 -2.64,7.65 -1.77,1.96 -4.07,2.94 -6.86,2.94 -2.79,0 -5.09,-0.98 -6.86,-2.98 -1.77,-2 -2.64,-4.52 -2.64,-7.61l0 -135.96z"/>
   <circle class="fil1 str0" cx="824" cy="131.33" r="37.7"/>
   <path class="fil0" d="M834.75 120.2l0 7.04 -6.07 0 0 13.57c0,2.76 0.05,4.36 0.17,4.81 0.12,0.45 0.38,0.83 0.8,1.13 0.41,0.29 0.9,0.44 1.49,0.44 0.83,0 2.01,-0.28 3.57,-0.85l0.74 6.89c-2.06,0.88 -4.38,1.32 -6.98,1.32 -1.59,0 -3.02,-0.27 -4.3,-0.81 -1.28,-0.54 -2.22,-1.24 -2.81,-2.09 -0.6,-0.86 -1.01,-2.01 -1.25,-3.48 -0.18,-1.03 -0.28,-3.12 -0.28,-6.27l0 -14.67 -4.07 0 0 -7.04 4.07 0 0 -6.65 8.85 -5.23 0 11.88 6.07 0z"/>
   <path class="fil0" d="M383.61 198.55l3.33 11.42 3.03 -10.61c0.33,-1.11 0.57,-1.86 0.72,-2.27 0.15,-0.4 0.45,-0.79 0.88,-1.16 0.43,-0.36 1.01,-0.55 1.77,-0.55 0.76,0 1.35,0.18 1.78,0.55 0.44,0.37 0.73,0.77 0.91,1.2 0.18,0.43 0.42,1.17 0.73,2.23l3.03 10.61 3.37 -11.42c0.23,-0.82 0.41,-1.42 0.54,-1.79 0.14,-0.36 0.37,-0.69 0.7,-0.97 0.33,-0.28 0.79,-0.42 1.4,-0.42 0.61,0 1.14,0.21 1.59,0.64 0.45,0.42 0.67,0.92 0.67,1.49 0,0.52 -0.19,1.32 -0.58,2.38l-4.17 12.24c-0.36,1.04 -0.65,1.78 -0.84,2.25 -0.2,0.46 -0.51,0.87 -0.95,1.23 -0.43,0.36 -1.02,0.54 -1.77,0.54 -0.77,0 -1.38,-0.19 -1.82,-0.58 -0.45,-0.38 -0.77,-0.86 -0.98,-1.42 -0.21,-0.56 -0.44,-1.29 -0.69,-2.19l-2.92 -9.95 -2.83 9.95c-0.37,1.39 -0.78,2.43 -1.21,3.14 -0.43,0.7 -1.21,1.05 -2.3,1.05 -0.56,0 -1.04,-0.11 -1.44,-0.33 -0.39,-0.22 -0.72,-0.53 -0.98,-0.94 -0.26,-0.4 -0.49,-0.88 -0.7,-1.44 -0.2,-0.56 -0.35,-1 -0.47,-1.32l-4.13 -12.24c-0.42,-1.15 -0.62,-1.94 -0.62,-2.38 0,-0.55 0.22,-1.04 0.66,-1.48 0.44,-0.44 0.97,-0.66 1.6,-0.66 0.85,0 1.42,0.24 1.72,0.72 0.3,0.48 0.62,1.3 0.95,2.46zm31.15 0l3.33 11.42 3.03 -10.61c0.33,-1.11 0.57,-1.86 0.72,-2.27 0.15,-0.4 0.45,-0.79 0.88,-1.16 0.43,-0.36 1.01,-0.55 1.77,-0.55 0.76,0 1.35,0.18 1.78,0.55 0.44,0.37 0.73,0.77 0.91,1.2 0.18,0.43 0.42,1.17 0.73,2.23l3.03 10.61 3.37 -11.42c0.23,-0.82 0.41,-1.42 0.54,-1.79 0.14,-0.36 0.37,-0.69 0.7,-0.97 0.33,-0.28 0.79,-0.42 1.41,-0.42 0.61,0 1.14,0.21 1.59,0.64 0.45,0.42 0.67,0.92 0.67,1.49 0,0.52 -0.19,1.32 -0.58,2.38l-4.17 12.24c-0.36,1.04 -0.64,1.78 -0.84,2.25 -0.2,0.46 -0.51,0.87 -0.95,1.23 -0.43,0.36 -1.01,0.54 -1.77,0.54 -0.77,0 -1.38,-0.19 -1.82,-0.58 -0.45,-0.38 -0.77,-0.86 -0.98,-1.42 -0.21,-0.56 -0.44,-1.29 -0.69,-2.19l-2.92 -9.95 -2.83 9.95c-0.37,1.39 -0.78,2.43 -1.21,3.14 -0.44,0.7 -1.21,1.05 -2.3,1.05 -0.56,0 -1.04,-0.11 -1.44,-0.33 -0.39,-0.22 -0.72,-0.53 -0.98,-0.94 -0.26,-0.4 -0.49,-0.88 -0.7,-1.44 -0.2,-0.56 -0.35,-1 -0.47,-1.32l-4.13 -12.24c-0.42,-1.15 -0.62,-1.94 -0.62,-2.38 0,-0.55 0.22,-1.04 0.66,-1.48 0.44,-0.44 0.97,-0.66 1.6,-0.66 0.85,0 1.42,0.24 1.72,0.72 0.3,0.48 0.62,1.3 0.95,2.46zm31.15 0l3.33 11.42 3.03 -10.61c0.33,-1.11 0.57,-1.86 0.72,-2.27 0.15,-0.4 0.45,-0.79 0.88,-1.16 0.43,-0.36 1.01,-0.55 1.77,-0.55 0.76,0 1.35,0.18 1.78,0.55 0.44,0.37 0.73,0.77 0.91,1.2 0.18,0.43 0.42,1.17 0.73,2.23l3.03 10.61 3.37 -11.42c0.23,-0.82 0.41,-1.42 0.54,-1.79 0.14,-0.36 0.37,-0.69 0.7,-0.97 0.33,-0.28 0.79,-0.42 1.41,-0.42 0.61,0 1.14,0.21 1.59,0.64 0.45,0.42 0.67,0.92 0.67,1.49 0,0.52 -0.19,1.32 -0.58,2.38l-4.17 12.24c-0.36,1.04 -0.64,1.78 -0.84,2.25 -0.2,0.46 -0.51,0.87 -0.95,1.23 -0.43,0.36 -1.01,0.54 -1.77,0.54 -0.77,0 -1.38,-0.19 -1.82,-0.58 -0.45,-0.38 -0.77,-0.86 -0.98,-1.42 -0.21,-0.56 -0.44,-1.29 -0.69,-2.19l-2.92 -9.95 -2.83 9.95c-0.37,1.39 -0.78,2.43 -1.21,3.14 -0.44,0.7 -1.21,1.05 -2.3,1.05 -0.56,0 -1.04,-0.11 -1.44,-0.33 -0.39,-0.22 -0.72,-0.53 -0.98,-0.94 -0.26,-0.4 -0.49,-0.88 -0.7,-1.44 -0.2,-0.56 -0.35,-1 -0.47,-1.32l-4.13 -12.24c-0.42,-1.15 -0.62,-1.94 -0.62,-2.38 0,-0.55 0.22,-1.04 0.66,-1.48 0.43,-0.44 0.97,-0.66 1.6,-0.66 0.85,0 1.42,0.24 1.72,0.72 0.3,0.48 0.62,1.3 0.95,2.46zm27.99 17.59c-0.77,0 -1.44,-0.25 -2,-0.75 -0.56,-0.5 -0.84,-1.2 -0.84,-2.09 0,-0.77 0.27,-1.42 0.8,-1.97 0.54,-0.55 1.2,-0.82 1.99,-0.82 0.78,0 1.46,0.27 2.01,0.81 0.56,0.54 0.83,1.2 0.83,1.98 0,0.88 -0.27,1.58 -0.83,2.08 -0.56,0.5 -1.21,0.76 -1.96,0.76zm13.32 0.65l0.47 -1.14 -6.28 -15.83c-0.39,-0.91 -0.58,-1.58 -0.58,-1.99 0,-0.43 0.11,-0.84 0.34,-1.22 0.22,-0.37 0.53,-0.67 0.93,-0.89 0.39,-0.22 0.8,-0.34 1.22,-0.34 0.74,0 1.3,0.24 1.67,0.7 0.38,0.47 0.7,1.14 0.99,2.01l4.32 12.58 4.09 -11.69c0.33,-0.95 0.62,-1.69 0.88,-2.23 0.26,-0.54 0.54,-0.9 0.83,-1.09 0.29,-0.18 0.71,-0.28 1.25,-0.28 0.38,0 0.75,0.1 1.11,0.31 0.35,0.21 0.63,0.49 0.82,0.84 0.19,0.34 0.29,0.72 0.29,1.11 -0.05,0.24 -0.13,0.57 -0.24,1.01 -0.11,0.43 -0.25,0.88 -0.41,1.33l-6.66 17.44c-0.57,1.54 -1.14,2.74 -1.68,3.61 -0.55,0.87 -1.28,1.55 -2.18,2.01 -0.9,0.47 -2.12,0.7 -3.65,0.7 -1.49,0 -2.62,-0.16 -3.37,-0.49 -0.75,-0.33 -1.12,-0.92 -1.12,-1.78 0,-0.59 0.18,-1.04 0.54,-1.35 0.35,-0.32 0.88,-0.48 1.58,-0.48 0.27,0 0.54,0.04 0.81,0.11 0.33,0.08 0.61,0.11 0.84,0.11 0.59,0 1.05,-0.09 1.38,-0.26 0.34,-0.17 0.64,-0.48 0.91,-0.91 0.27,-0.44 0.58,-1.07 0.93,-1.9zm28.46 -3.51c-1.24,0.96 -2.43,1.67 -3.58,2.15 -1.16,0.48 -2.45,0.72 -3.88,0.72 -1.31,0 -2.46,-0.26 -3.45,-0.78 -0.99,-0.52 -1.76,-1.21 -2.29,-2.1 -0.54,-0.89 -0.8,-1.85 -0.8,-2.88 0,-1.4 0.44,-2.59 1.33,-3.57 0.89,-0.99 2.11,-1.65 3.66,-1.99 0.32,-0.08 1.12,-0.24 2.41,-0.5 1.28,-0.26 2.39,-0.5 3.3,-0.72 0.91,-0.22 1.91,-0.48 2.98,-0.79 -0.06,-1.35 -0.33,-2.34 -0.81,-2.96 -0.49,-0.63 -1.48,-0.95 -2.99,-0.95 -1.3,0 -2.27,0.18 -2.93,0.54 -0.66,0.36 -1.22,0.9 -1.69,1.63 -0.47,0.72 -0.8,1.19 -0.99,1.43 -0.2,0.23 -0.61,0.34 -1.24,0.34 -0.58,0 -1.07,-0.18 -1.49,-0.56 -0.42,-0.36 -0.63,-0.84 -0.63,-1.41 0,-0.9 0.32,-1.78 0.95,-2.62 0.64,-0.85 1.63,-1.55 2.98,-2.1 1.35,-0.55 3.03,-0.82 5.04,-0.82 2.24,0 4.01,0.27 5.29,0.8 1.28,0.53 2.19,1.37 2.72,2.52 0.53,1.15 0.8,2.67 0.8,4.57 0,1.2 -0.01,2.22 -0.01,3.05 -0.01,0.84 -0.01,1.77 -0.03,2.79 0,0.96 0.16,1.96 0.48,3 0.32,1.03 0.47,1.71 0.47,2 0,0.52 -0.24,1 -0.73,1.43 -0.5,0.43 -1.05,0.65 -1.68,0.65 -0.52,0 -1.04,-0.24 -1.55,-0.73 -0.51,-0.49 -1.05,-1.2 -1.63,-2.13zm-0.34 -7.4c-0.75,0.27 -1.83,0.57 -3.26,0.87 -1.42,0.31 -2.41,0.54 -2.96,0.68 -0.55,0.15 -1.07,0.43 -1.57,0.84 -0.5,0.42 -0.75,1 -0.75,1.76 0,0.77 0.29,1.43 0.88,1.97 0.58,0.54 1.35,0.82 2.3,0.82 1.01,0 1.94,-0.22 2.79,-0.66 0.86,-0.45 1.48,-1.01 1.88,-1.72 0.46,-0.77 0.69,-2.05 0.69,-3.83l0 -0.73zm12.42 -7.32l3.33 11.42 3.03 -10.61c0.33,-1.11 0.57,-1.86 0.72,-2.27 0.15,-0.4 0.45,-0.79 0.88,-1.16 0.43,-0.36 1.01,-0.55 1.77,-0.55 0.76,0 1.35,0.18 1.78,0.55 0.44,0.37 0.73,0.77 0.91,1.2 0.18,0.43 0.42,1.17 0.73,2.23l3.03 10.61 3.37 -11.42c0.23,-0.82 0.41,-1.42 0.54,-1.79 0.14,-0.36 0.37,-0.69 0.7,-0.97 0.33,-0.28 0.79,-0.42 1.41,-0.42 0.61,0 1.14,0.21 1.59,0.64 0.45,0.42 0.67,0.92 0.67,1.49 0,0.52 -0.19,1.32 -0.58,2.38l-4.17 12.24c-0.36,1.04 -0.64,1.78 -0.84,2.25 -0.2,0.46 -0.51,0.87 -0.95,1.23 -0.43,0.36 -1.01,0.54 -1.77,0.54 -0.77,0 -1.38,-0.19 -1.82,-0.58 -0.45,-0.38 -0.77,-0.86 -0.98,-1.42 -0.21,-0.56 -0.44,-1.29 -0.69,-2.19l-2.92 -9.95 -2.83 9.95c-0.37,1.39 -0.78,2.43 -1.21,3.14 -0.44,0.7 -1.21,1.05 -2.3,1.05 -0.56,0 -1.04,-0.11 -1.44,-0.33 -0.39,-0.22 -0.72,-0.53 -0.98,-0.94 -0.26,-0.4 -0.49,-0.88 -0.7,-1.44 -0.2,-0.56 -0.35,-1 -0.47,-1.32l-4.13 -12.24c-0.42,-1.15 -0.62,-1.94 -0.62,-2.38 0,-0.55 0.22,-1.04 0.66,-1.48 0.43,-0.44 0.97,-0.66 1.6,-0.66 0.85,0 1.42,0.24 1.72,0.72 0.3,0.48 0.62,1.3 0.95,2.46zm40.38 14.72c-1.24,0.96 -2.43,1.67 -3.58,2.15 -1.16,0.48 -2.45,0.72 -3.88,0.72 -1.31,0 -2.47,-0.26 -3.46,-0.78 -0.99,-0.52 -1.76,-1.21 -2.29,-2.1 -0.54,-0.89 -0.8,-1.85 -0.8,-2.88 0,-1.4 0.44,-2.59 1.33,-3.57 0.89,-0.99 2.11,-1.65 3.66,-1.99 0.32,-0.08 1.12,-0.24 2.41,-0.5 1.28,-0.26 2.39,-0.5 3.3,-0.72 0.91,-0.22 1.91,-0.48 2.98,-0.79 -0.06,-1.35 -0.33,-2.34 -0.81,-2.96 -0.49,-0.63 -1.48,-0.95 -2.99,-0.95 -1.3,0 -2.27,0.18 -2.93,0.54 -0.66,0.36 -1.22,0.9 -1.69,1.63 -0.47,0.72 -0.8,1.19 -0.99,1.43 -0.2,0.23 -0.61,0.34 -1.24,0.34 -0.57,0 -1.07,-0.18 -1.49,-0.56 -0.41,-0.36 -0.63,-0.84 -0.63,-1.41 0,-0.9 0.32,-1.78 0.95,-2.62 0.64,-0.85 1.63,-1.55 2.98,-2.1 1.35,-0.55 3.03,-0.82 5.04,-0.82 2.24,0 4.01,0.27 5.29,0.8 1.28,0.53 2.19,1.37 2.72,2.52 0.53,1.15 0.8,2.67 0.8,4.57 0,1.2 -0.01,2.22 -0.01,3.05 -0.01,0.84 -0.01,1.77 -0.03,2.79 0,0.96 0.16,1.96 0.48,3 0.32,1.03 0.47,1.71 0.47,2 0,0.52 -0.24,1 -0.73,1.43 -0.5,0.43 -1.05,0.65 -1.68,0.65 -0.52,0 -1.04,-0.24 -1.55,-0.73 -0.51,-0.49 -1.05,-1.2 -1.63,-2.13zm-0.34 -7.4c-0.75,0.27 -1.83,0.57 -3.26,0.87 -1.42,0.31 -2.41,0.54 -2.96,0.68 -0.55,0.15 -1.07,0.43 -1.57,0.84 -0.5,0.42 -0.75,1 -0.75,1.76 0,0.77 0.29,1.43 0.88,1.97 0.58,0.54 1.35,0.82 2.3,0.82 1.01,0 1.94,-0.22 2.79,-0.66 0.86,-0.45 1.48,-1.01 1.88,-1.72 0.46,-0.77 0.69,-2.05 0.69,-3.83l0 -0.73zm15.26 2.9l0 4.27c0,1.03 -0.24,1.81 -0.73,2.32 -0.49,0.52 -1.1,0.78 -1.85,0.78 -0.73,0 -1.34,-0.26 -1.81,-0.78 -0.47,-0.52 -0.71,-1.3 -0.71,-2.32l0 -14.22c0,-2.29 0.83,-3.44 2.48,-3.44 0.84,0 1.46,0.27 1.83,0.8 0.38,0.54 0.58,1.33 0.62,2.38 0.61,-1.05 1.23,-1.85 1.88,-2.38 0.65,-0.54 1.5,-0.8 2.57,-0.8 1.07,0 2.11,0.27 3.12,0.8 1.01,0.54 1.51,1.25 1.51,2.14 0,0.63 -0.21,1.14 -0.65,1.55 -0.43,0.41 -0.89,0.61 -1.39,0.61 -0.18,0 -0.64,-0.11 -1.35,-0.34 -0.72,-0.23 -1.35,-0.34 -1.9,-0.34 -0.75,0 -1.35,0.2 -1.83,0.59 -0.47,0.4 -0.84,0.98 -1.11,1.75 -0.26,0.77 -0.44,1.69 -0.54,2.76 -0.1,1.07 -0.15,2.36 -0.15,3.89zm12.47 -12.94l0.56 0 0 -3.07c0,-0.82 0.02,-1.47 0.06,-1.94 0.04,-0.47 0.17,-0.87 0.36,-1.21 0.2,-0.35 0.49,-0.64 0.86,-0.85 0.37,-0.22 0.79,-0.33 1.25,-0.33 0.65,0 1.23,0.24 1.75,0.73 0.35,0.33 0.57,0.72 0.66,1.19 0.1,0.47 0.14,1.13 0.14,1.99l0 3.48 1.87 0c0.72,0 1.28,0.17 1.66,0.51 0.38,0.35 0.57,0.79 0.57,1.32 0,0.69 -0.27,1.17 -0.82,1.44 -0.54,0.27 -1.32,0.41 -2.33,0.41l-0.95 0 0 9.39c0,0.8 0.03,1.42 0.08,1.85 0.06,0.43 0.21,0.78 0.45,1.05 0.25,0.27 0.64,0.4 1.19,0.4 0.29,0 0.7,-0.05 1.21,-0.16 0.51,-0.1 0.91,-0.16 1.2,-0.16 0.41,0 0.78,0.17 1.12,0.5 0.33,0.33 0.49,0.74 0.49,1.23 0,0.82 -0.45,1.45 -1.34,1.88 -0.9,0.44 -2.19,0.66 -3.88,0.66 -1.6,0 -2.8,-0.27 -3.62,-0.8 -0.82,-0.54 -1.36,-1.28 -1.62,-2.23 -0.26,-0.95 -0.38,-2.21 -0.38,-3.79l0 -9.8 -0.67 0c-0.74,0 -1.3,-0.17 -1.69,-0.52 -0.39,-0.35 -0.58,-0.79 -0.58,-1.33 0,-0.53 0.2,-0.97 0.61,-1.32 0.41,-0.34 1,-0.51 1.77,-0.51zm27.53 11.19l-10 0c0.01,1.16 0.25,2.18 0.7,3.07 0.45,0.89 1.06,1.55 1.81,2 0.75,0.45 1.59,0.68 2.5,0.68 0.61,0 1.17,-0.07 1.67,-0.22 0.51,-0.14 1,-0.36 1.47,-0.67 0.48,-0.31 0.91,-0.63 1.31,-0.98 0.4,-0.35 0.92,-0.82 1.56,-1.43 0.26,-0.22 0.63,-0.34 1.12,-0.34 0.52,0 0.95,0.15 1.28,0.44 0.32,0.28 0.49,0.69 0.49,1.21 0,0.46 -0.19,1 -0.54,1.62 -0.36,0.61 -0.91,1.21 -1.64,1.77 -0.73,0.57 -1.64,1.04 -2.75,1.41 -1.11,0.38 -2.38,0.56 -3.81,0.56 -3.28,0 -5.83,-0.94 -7.65,-2.81 -1.82,-1.87 -2.73,-4.41 -2.73,-7.61 0,-1.51 0.22,-2.91 0.67,-4.2 0.45,-1.29 1.11,-2.39 1.96,-3.32 0.86,-0.92 1.92,-1.63 3.18,-2.12 1.26,-0.49 2.66,-0.74 4.19,-0.74 2,0 3.71,0.42 5.14,1.26 1.43,0.84 2.5,1.93 3.21,3.27 0.71,1.33 1.07,2.7 1.07,4.08 0,1.28 -0.37,2.12 -1.11,2.5 -0.73,0.38 -1.77,0.57 -3.1,0.57zm-10 -2.91l9.26 0c-0.12,-1.74 -0.59,-3.05 -1.41,-3.91 -0.82,-0.86 -1.89,-1.3 -3.22,-1.3 -1.28,0 -2.32,0.44 -3.14,1.32 -0.82,0.88 -1.32,2.18 -1.49,3.9zm36.84 5.72c0,0.63 -0.19,1.32 -0.57,2.04 -0.38,0.72 -0.96,1.41 -1.74,2.06 -0.78,0.65 -1.76,1.18 -2.95,1.58 -1.18,0.4 -2.52,0.6 -4,0.6 -3.16,0 -5.62,-0.92 -7.39,-2.76 -1.78,-1.84 -2.66,-4.3 -2.66,-7.4 0,-2.1 0.41,-3.95 1.22,-5.56 0.81,-1.61 1.99,-2.85 3.52,-3.73 1.54,-0.88 3.37,-1.32 5.51,-1.32 1.32,0 2.53,0.19 3.64,0.58 1.1,0.39 2.04,0.89 2.8,1.5 0.77,0.61 1.35,1.26 1.76,1.95 0.41,0.7 0.61,1.34 0.61,1.94 0,0.61 -0.23,1.13 -0.68,1.56 -0.46,0.42 -1.01,0.63 -1.66,0.63 -0.42,0 -0.77,-0.11 -1.05,-0.33 -0.28,-0.22 -0.6,-0.57 -0.95,-1.05 -0.62,-0.95 -1.28,-1.66 -1.95,-2.13 -0.68,-0.47 -1.55,-0.71 -2.59,-0.71 -1.51,0 -2.73,0.59 -3.65,1.77 -0.93,1.18 -1.39,2.78 -1.39,4.83 0,0.96 0.12,1.84 0.36,2.64 0.24,0.81 0.57,1.49 1.03,2.06 0.45,0.57 0.99,1 1.63,1.29 0.63,0.29 1.33,0.44 2.1,0.44 1.02,0 1.9,-0.24 2.62,-0.71 0.73,-0.47 1.38,-1.2 1.94,-2.17 0.31,-0.57 0.64,-1.02 1.01,-1.34 0.36,-0.33 0.81,-0.49 1.33,-0.49 0.63,0 1.14,0.24 1.55,0.72 0.41,0.47 0.62,0.98 0.62,1.51zm8.48 -18.94l0 7.57c0.65,-0.75 1.28,-1.34 1.9,-1.78 0.61,-0.44 1.3,-0.77 2.04,-0.98 0.75,-0.22 1.56,-0.33 2.42,-0.33 1.3,0 2.45,0.27 3.45,0.82 1,0.55 1.79,1.35 2.36,2.39 0.36,0.61 0.61,1.29 0.73,2.05 0.12,0.75 0.19,1.62 0.19,2.61l0 9.79c0,1.02 -0.24,1.79 -0.7,2.32 -0.47,0.52 -1.09,0.78 -1.87,0.78 -1.69,0 -2.53,-1.03 -2.53,-3.1l0 -8.63c0,-1.63 -0.24,-2.89 -0.73,-3.77 -0.49,-0.88 -1.41,-1.32 -2.77,-1.32 -0.91,0 -1.73,0.26 -2.46,0.78 -0.73,0.52 -1.28,1.22 -1.64,2.12 -0.27,0.76 -0.41,2.11 -0.41,4.06l0 6.76c0,1.01 -0.23,1.78 -0.68,2.31 -0.45,0.53 -1.09,0.8 -1.89,0.8 -1.68,0 -2.52,-1.03 -2.52,-3.1l0 -22.15c0,-1.04 0.22,-1.81 0.66,-2.33 0.44,-0.52 1.06,-0.78 1.86,-0.78 0.8,0 1.44,0.26 1.89,0.78 0.45,0.52 0.68,1.3 0.68,2.32zm21.54 25.25c-0.77,0 -1.44,-0.25 -2,-0.75 -0.56,-0.5 -0.84,-1.2 -0.84,-2.09 0,-0.77 0.27,-1.42 0.81,-1.97 0.54,-0.55 1.2,-0.82 1.99,-0.82 0.79,0 1.46,0.27 2.01,0.81 0.56,0.54 0.83,1.2 0.83,1.98 0,0.88 -0.27,1.58 -0.83,2.08 -0.56,0.5 -1.21,0.76 -1.96,0.76zm26.94 -6.32c0,0.63 -0.19,1.32 -0.57,2.04 -0.38,0.72 -0.96,1.41 -1.74,2.06 -0.78,0.65 -1.76,1.18 -2.95,1.58 -1.18,0.4 -2.52,0.6 -4,0.6 -3.16,0 -5.62,-0.92 -7.39,-2.76 -1.78,-1.84 -2.66,-4.3 -2.66,-7.4 0,-2.1 0.41,-3.95 1.22,-5.56 0.81,-1.61 1.99,-2.85 3.52,-3.73 1.54,-0.88 3.37,-1.32 5.5,-1.32 1.32,0 2.54,0.19 3.64,0.58 1.1,0.39 2.04,0.89 2.8,1.5 0.77,0.61 1.35,1.26 1.76,1.95 0.41,0.7 0.61,1.34 0.61,1.94 0,0.61 -0.23,1.13 -0.68,1.56 -0.46,0.42 -1.01,0.63 -1.66,0.63 -0.42,0 -0.77,-0.11 -1.05,-0.33 -0.28,-0.22 -0.59,-0.57 -0.95,-1.05 -0.63,-0.95 -1.28,-1.66 -1.95,-2.13 -0.68,-0.47 -1.55,-0.71 -2.59,-0.71 -1.51,0 -2.73,0.59 -3.65,1.77 -0.93,1.18 -1.39,2.78 -1.39,4.83 0,0.96 0.12,1.84 0.36,2.64 0.24,0.81 0.57,1.49 1.03,2.06 0.45,0.57 0.99,1 1.63,1.29 0.63,0.29 1.33,0.44 2.09,0.44 1.02,0 1.9,-0.24 2.63,-0.71 0.73,-0.47 1.38,-1.2 1.94,-2.17 0.31,-0.57 0.65,-1.02 1.01,-1.34 0.36,-0.33 0.8,-0.49 1.33,-0.49 0.63,0 1.14,0.24 1.55,0.72 0.41,0.47 0.62,0.98 0.62,1.51zm23.57 -4.06c0,1.53 -0.24,2.93 -0.71,4.21 -0.48,1.28 -1.16,2.39 -2.06,3.31 -0.89,0.93 -1.97,1.63 -3.22,2.12 -1.25,0.49 -2.65,0.74 -4.21,0.74 -1.55,0 -2.94,-0.25 -4.18,-0.75 -1.23,-0.5 -2.31,-1.21 -3.21,-2.15 -0.9,-0.93 -1.59,-2.02 -2.06,-3.29 -0.47,-1.27 -0.7,-2.67 -0.7,-4.2 0,-1.55 0.24,-2.96 0.71,-4.25 0.48,-1.28 1.16,-2.38 2.04,-3.3 0.89,-0.91 1.96,-1.61 3.22,-2.1 1.26,-0.49 2.65,-0.74 4.18,-0.74 1.55,0 2.95,0.25 4.21,0.75 1.26,0.5 2.34,1.21 3.24,2.14 0.9,0.92 1.58,2.02 2.05,3.29 0.47,1.27 0.7,2.68 0.7,4.21zm-5.13 0c0,-2.08 -0.46,-3.7 -1.37,-4.86 -0.92,-1.16 -2.15,-1.74 -3.69,-1.74 -1,0 -1.88,0.26 -2.64,0.77 -0.76,0.52 -1.35,1.28 -1.76,2.29 -0.41,1.01 -0.62,2.19 -0.62,3.53 0,1.33 0.2,2.5 0.61,3.5 0.41,1 0.98,1.76 1.74,2.29 0.75,0.53 1.65,0.79 2.67,0.79 1.55,0 2.77,-0.58 3.69,-1.75 0.91,-1.16 1.37,-2.78 1.37,-4.83zm26.13 0.37l0 6.79c0,1.07 -0.24,1.88 -0.73,2.41 -0.49,0.54 -1.13,0.8 -1.92,0.8 -0.77,0 -1.4,-0.27 -1.88,-0.8 -0.48,-0.54 -0.72,-1.34 -0.72,-2.41l0 -8.14c0,-1.29 -0.04,-2.29 -0.13,-3 -0.08,-0.71 -0.32,-1.3 -0.71,-1.75 -0.39,-0.45 -1,-0.68 -1.84,-0.68 -1.67,0 -2.77,0.58 -3.3,1.72 -0.53,1.14 -0.8,2.79 -0.8,4.94l0 6.9c0,1.06 -0.24,1.86 -0.72,2.41 -0.48,0.54 -1.11,0.81 -1.89,0.81 -0.77,0 -1.4,-0.27 -1.9,-0.81 -0.49,-0.54 -0.74,-1.35 -0.74,-2.41l0 -14.61c0,-0.96 0.22,-1.69 0.66,-2.19 0.44,-0.5 1.02,-0.75 1.74,-0.75 0.7,0 1.28,0.24 1.75,0.7 0.47,0.47 0.7,1.11 0.7,1.94l0 0.49c0.88,-1.06 1.83,-1.84 2.84,-2.34 1.01,-0.5 2.13,-0.75 3.37,-0.75 1.29,0 2.39,0.26 3.32,0.77 0.93,0.51 1.69,1.28 2.28,2.32 0.86,-1.05 1.79,-1.82 2.77,-2.33 0.98,-0.5 2.08,-0.76 3.28,-0.76 1.4,0 2.6,0.27 3.61,0.82 1.01,0.55 1.77,1.33 2.27,2.36 0.43,0.92 0.65,2.38 0.65,4.36l0 9.98c0,1.07 -0.24,1.88 -0.73,2.41 -0.49,0.54 -1.13,0.8 -1.92,0.8 -0.77,0 -1.4,-0.27 -1.9,-0.81 -0.49,-0.54 -0.74,-1.35 -0.74,-2.41l0 -8.59c0,-1.1 -0.04,-1.97 -0.14,-2.64 -0.1,-0.66 -0.34,-1.21 -0.76,-1.67 -0.41,-0.45 -1.04,-0.67 -1.87,-0.67 -0.68,0 -1.32,0.2 -1.92,0.6 -0.6,0.4 -1.07,0.93 -1.41,1.61 -0.38,0.86 -0.56,2.38 -0.56,4.57z"/>
   <polygon class="fil2" points="322.02,37.26 227.18,0 227.61,214.84 321.8,185.91 "/>
   <polygon class="fil3" points="125.04,35.8 227.18,0 227.61,214.84 132.56,185.91 "/>
   <path class="fil4" d="M227.31 66.65l19.73 47.99 -40.43 -0.05 20.1 -48.38 0.59 0.44zm29.01 69.96c3.08,4.79 12.13,33.26 14.43,34.34l25.2 -0 -68.82 -155.25c-1.59,0.74 -61.8,138.36 -69.59,155.09l25.84 0.16 13.93 -34.86 51.7 0.01c2.02,0 5.95,-0.63 7.31,0.51z"/>
   <path class="fil2" d="M227.76 114.71l20.01 -0 -19.73 -47.99c-0.21,0.41 -0.11,-0.24 -0.34,1.04l-0.08 22.9c0,6.62 -0.67,18 0.14,24.05z"/>
   <path class="fil3" d="M227.76 114.71c-0.81,-6.05 -0.14,-17.43 -0.14,-24.05l0.08 -22.9c0.23,-1.28 0.13,-0.63 0.34,-1.04l-0.59 -0.44 -20.1 48.38 20.42 0.05z"/>
   <path class="fil5" d="M802.6 196.24c-0.71,3.18 -0.38,7.42 2.36,9.47 0.94,0.7 2.41,0.51 3.6,0.52 4.36,0.05 9.45,0.06 13.53,-0.52 7.04,-1 13.77,-4.23 18.72,-8.74 0.68,-0.62 1.49,-1.75 2.35,-2.06 -2.27,5.01 -9.73,10.09 -14.7,12.21 -3.05,1.3 -6.23,2.06 -9.69,2.35 -2.29,0.19 -8.78,0.32 -10.49,0.93 6.95,1.11 9.6,2.12 16.42,3.65 11.75,2.63 21.83,-0.63 24.72,-13.56 1.06,-4.72 1.31,-7.15 1.25,-11.81 -0.03,-2.09 -0.08,-7.66 -0.75,-9.16 -0.74,0.52 -1.44,1.37 -2.25,2.02 -6.45,5.13 -13.67,6.24 -22.17,5.05 -6.09,-0.85 -9.34,-1.83 -14.43,0.19 -3.34,1.33 -7.33,4.39 -8.47,9.46z"/>
   <circle class="fil5" transform="matrix(0.0501502 0.0112283 -0.0112283 0.0501502 803.046 209.428)" r="35.52"/>
  </g>
 </g>
</svg>
